<svg xmlns="http://www.w3.org/2000/svg" xmlns:xlink="http://www.w3.org/1999/xlink" width="23" height="30" version="1.1" viewBox="0 0 23 30"><title>icon_share</title><desc>Created with Sketch.</desc><g id="Symbols" fill="none" fill-rule="evenodd" stroke="none" stroke-width="1"><g id="MessageModul" fill="#00A7FF" transform="translate(-584.000000, -634.000000)"><g id="Group-2"><g id="icon_share" transform="translate(584.000000, 633.000000)"><g id="Group-3" transform="translate(0.000000, 0.174419)"><g id="Group-4" transform="translate(0.000000, 0.000000)"><path id="Fill-1" d="M20.4561303,10.0000349 L14.1137061,10.0000349 L14.1137061,12.0930581 L20.4561303,12.0930581 C20.7000697,12.0930581 20.9091606,12.3023605 20.9091606,12.5116628 L20.9091606,28.0349186 C20.9091606,28.2791047 20.7000697,28.4535233 20.4561303,28.4535233 L2.54400909,28.4535233 C2.3000697,28.4535233 2.09097879,28.2442209 2.09097879,28.0349186 L2.09097879,12.5465465 C2.09097879,12.3023605 2.3000697,12.1279419 2.54400909,12.1279419 L8.18946364,12.1279419 L8.18946364,10.0349186 L2.54400909,10.0349186 C1.1500697,10.0349186 6.96969697e-05,11.1511977 6.96969697e-05,12.5465465 L6.96969697e-05,28.0698023 C6.96969697e-05,29.4651512 1.1500697,30.5814302 2.54400909,30.5814302 L20.4561303,30.5814302 C21.8500697,30.5814302 23.0000697,29.4651512 23.0000697,28.0698023 L23.0000697,12.5465465 C23.0000697,11.1511977 21.8500697,10.0000349 20.4561303,10.0000349"/><g id="Group-6" transform="translate(5.924242, 0.930233)"><polygon id="Fill-4" points="4.53 3.593 4.53 21.384 6.621 21.384 6.621 3.593 9.792 5.965 11.047 4.291 5.576 .244 .105 4.291 1.359 5.965"/></g></g></g></g></g></g></g></svg>